# xmcd CD database file
#
# Track frame offsets:
#	200
#	19262
#	50132
#	80367
#	105110
#
# Disc length: 1813 seconds
#
# Revision: 2
# Processed by: cddbd v1.4b41PL1 Copyright (c) Steve Scherf et al.
# Submitted via: Feurio! 1.52 - http://www.feurio.com
#
DISCID=32071305
DTITLE=YoYo Honey - Don't come to leave
DYEAR=1900
DGENRE=
TTITLE0=Don't Come To Leave
TTITLE1=Don't Come To Leave
TTITLE2=Don't Come To Leave
TTITLE3=Don't Come To Leave
TTITLE4=Don't Come To Leave
EXTD=
EXTT0=Deep Soul Radio Mix
EXTT1=Rolex Mix
EXTT2=Cling Free Mix
EXTT3=Jazz Mon Mix
EXTT4=Summer Fever Mix
PLAYORDER=
